<svg xmlns="http://www.w3.org/2000/svg" width="288" height="72" viewBox="0 0 288 72" role="img" aria-label="LINKEDIN — sidy-mohamed-saizonou">
  <defs><style>.m{font-family:'JetBrains Mono','Fira Code','SFMono-Regular',Consolas,'Liberation Mono',Menlo,monospace}
    .sweep{animation:sw 4s ease-in-out infinite}@keyframes sw{0%{transform:translateX(-120px)}60%,100%{transform:translateX(320px)}}</style>
  <linearGradient id="s" x1="0" x2="1"><stop offset="0" stop-color="#22d3ee" stop-opacity="0"/><stop offset=".5" stop-color="#22d3ee" stop-opacity=".09"/><stop offset="1" stop-color="#22d3ee" stop-opacity="0"/></linearGradient>
  <clipPath id="c"><rect width="288" height="72" rx="12"/></clipPath></defs>
  <g clip-path="url(#c)">
    <rect width="288" height="72" fill="#0b111b"/>
    <rect width="3" height="72" fill="#3b9bf0"/>
    <rect width="100" height="72" fill="url(#s)" class="sweep"/>
    <rect x="18" y="16" width="40" height="40" rx="10" fill="#3b9bf0" fill-opacity=".1"/>
    <g transform="translate(26 24)"><path d="M5 9h3v10h-3zM6.5 4.5a1.6 1.6 0 1 1 0 3.2a1.6 1.6 0 1 1 0 -3.2M10 9h3v1.5c.6-1 1.8-1.8 3.4-1.8c2.6 0 3.6 1.6 3.6 4.3v6h-3v-5.5c0-1.4-.4-2.3-1.7-2.3s-2.3 1-2.3 2.5v5.3h-3z" fill="#3b9bf0"/></g>
    <text x="72" y="33" class="m" font-size="13" font-weight="800" letter-spacing="2.5" fill="#e8f1f8">LINKEDIN</text>
    <text x="72" y="52" class="m" font-size="11" fill="#7c8ea3">sidy-mohamed-saizonou</text>
    <text x="268" y="42" text-anchor="end" class="m" font-size="16" fill="#3b9bf0">↗</text>
  </g>
  <rect x=".75" y=".75" width="286.5" height="70.5" rx="12" fill="none" stroke="#1d2b3c" stroke-width="1.5"/>
</svg>
